<svg id="Layer_1" data-name="Layer 1" xmlns="http://www.w3.org/2000/svg" viewBox="0 0 939.65 392.8"><defs><style>.cls-1{fill:#e5d25c;}</style></defs><path d="M396,383l-10,49L264,584l112-2-7,52-199-1,8-48L302,441l-101-3,12-55Z" transform="translate(-126.85 -383)"/><path d="M422,383.74h63.77l-33,153.91q-11.55,53.85,28,53.84,41.14,0,52.69-53.84l33-153.91h62.12L597,530.82Q573,642.93,469.7,642.93T390.47,530.82Z" transform="translate(-126.85 -383)"/><path d="M606.09,638.11l54.56-254.37H724L680,589.08H791.42l-10.51,49Z" transform="translate(-126.85 -383)"/><path d="M836.23,383.74H900L867,537.65q-11.57,53.85,28,53.84,41.13,0,52.69-53.84l33-153.91h62.13l-31.55,147.08q-24,112.11-127.32,112.11T804.69,530.82Z" transform="translate(-126.85 -383)"/><path class="cls-1" d="M1066.5,432.5c-10.25.35-20.48.42-30.71.74l-15.34.47c-5.11.17-10.21.25-15.32.5l-15.31.6-7.65.29-7.65.4c-10.2.54-20.39.91-30.57,1.63q-61.08,3.64-121.75,10.39a2007,2007,0,0,0-240.08,41.4l-14.82,3.49-14.76,3.72-14.75,3.76-14.68,4-7.36,2-3.67,1-3.66,1-14.64,4.19c-9.78,2.7-19.43,5.84-29.17,8.7-2.43.73-4.87,1.44-7.29,2.2l-7.25,2.32-14.5,4.65c-4.85,1.49-9.61,3.24-14.44,4.81l-14.44,4.84c-9.58,3.35-19.13,6.79-28.71,10.19l-14.28,5.31-7.14,2.66c-2.38.87-4.76,1.76-7.12,2.71q-56.9,21.87-112.29,47.78l-13.86,6.46-13.74,6.72c-4.58,2.24-9.19,4.4-13.76,6.72L182.06,635q-27.45,13.72-55.21,27,25.77-16.77,51.83-33l13-8.14c4.33-2.72,8.78-5.3,13.17-8l13.24-7.89,13.4-7.62a1233.33,1233.33,0,0,1,110.46-55c2.34-1.07,4.71-2.07,7.09-3.06l7.11-3,14.24-6q14.34-5.73,28.74-11.34c9.66-3.56,19.28-7.29,29-10.68l14.6-5.06,7.3-2.54c2.43-.83,4.89-1.61,7.34-2.41l14.7-4.78c4.89-1.61,9.83-3.09,14.76-4.57l14.8-4.47,3.7-1.11,3.72-1.05,7.43-2.11,14.89-4.14,15-3.89,15-3.85,15-3.61A1490.29,1490.29,0,0,1,820.45,428q61.57-4,123.25-3.1,30.79.48,61.52,2.37c5.12.26,10.23.64,15.35,1l15.33,1.18c5.11.41,10.21,1,15.31,1.45S1061.41,432,1066.5,432.5Z" transform="translate(-126.85 -383)"/><path d="M364.65,729.83v-68h46.62v11.5H378.38v16.1h28.39v11.51H378.38v28.89Z" transform="translate(-126.85 -383)"/><path d="M431.67,729.83v-68H445.4v68Z" transform="translate(-126.85 -383)"/><path d="M483.29,729.83v-56.5H463.11v-11.5h54v11.5H497v56.5Z" transform="translate(-126.85 -383)"/><path d="M535.65,729.83v-68H549l27.83,45.41V661.83H589.6v68H575.82l-27.41-44.34v44.34Z" transform="translate(-126.85 -383)"/><path d="M613.62,729.83v-68H664v11.5H627.35v15.08h34.14v11.46H627.35v18.51h38v11.45Z" transform="translate(-126.85 -383)"/><path d="M683,707.71l13.36-1.3q1.21,6.72,4.9,9.88t10,3.15q6.63,0,10-2.8a8.34,8.34,0,0,0,3.37-6.57,6.21,6.21,0,0,0-1.42-4.1,11.33,11.33,0,0,0-4.94-3q-2.41-.82-11-3-11-2.73-15.5-6.72a17.72,17.72,0,0,1-6.26-13.69,17.41,17.41,0,0,1,2.95-9.71A18.33,18.33,0,0,1,696.9,663a33.92,33.92,0,0,1,13.38-2.37q12.79,0,19.27,5.61t6.8,15l-13.73.6c-.59-3.49-1.85-6-3.78-7.54S714,672,710.14,672s-7.11.82-9.37,2.45a5,5,0,0,0-2.18,4.23,5.21,5.21,0,0,0,2,4.12q2.6,2.19,12.62,4.55t14.82,4.89a19.1,19.1,0,0,1,7.51,6.92,21.36,21.36,0,0,1-.53,21.77,19.51,19.51,0,0,1-9.18,7.59,38.65,38.65,0,0,1-14.8,2.48q-12.9,0-19.81-6T683,707.71Z" transform="translate(-126.85 -383)"/><path d="M755.87,707.71l13.36-1.3q1.2,6.72,4.89,9.88t10,3.15q6.63,0,10-2.8a8.35,8.35,0,0,0,3.36-6.57A6.21,6.21,0,0,0,796,706a11.39,11.39,0,0,0-4.94-3q-2.42-.82-11-3-11-2.73-15.49-6.72a17.69,17.69,0,0,1-6.26-13.69,17.48,17.48,0,0,1,2.94-9.71,18.43,18.43,0,0,1,8.49-6.89,34,34,0,0,1,13.38-2.37q12.81,0,19.28,5.61t6.79,15l-13.73.6c-.59-3.49-1.85-6-3.78-7.54S786.87,672,783,672s-7.11.82-9.37,2.45a5,5,0,0,0-2.18,4.23,5.2,5.2,0,0,0,2,4.12q2.6,2.19,12.61,4.55t14.82,4.89a19.12,19.12,0,0,1,7.52,6.92A20.19,20.19,0,0,1,811.16,710,20,20,0,0,1,807.91,721a19.41,19.41,0,0,1-9.18,7.59,38.61,38.61,0,0,1-14.8,2.48q-12.9,0-19.81-6T755.87,707.71Z" transform="translate(-126.85 -383)"/><path class="cls-1" d="M387.69,767l5-.49a6.14,6.14,0,0,0,1.84,3.72,5.6,5.6,0,0,0,3.75,1.19,5.72,5.72,0,0,0,3.76-1.06,3.13,3.13,0,0,0,1.26-2.47,2.29,2.29,0,0,0-.53-1.54,4.11,4.11,0,0,0-1.86-1.11c-.6-.21-2-.58-4.13-1.12a13.91,13.91,0,0,1-5.83-2.53,6.72,6.72,0,0,1-1.25-8.81,7,7,0,0,1,3.19-2.59,12.87,12.87,0,0,1,5-.89c3.21,0,5.63.71,7.25,2.11a7.44,7.44,0,0,1,2.56,5.64l-5.17.23a4.38,4.38,0,0,0-1.42-2.84,5.25,5.25,0,0,0-3.27-.86,6,6,0,0,0-3.53.92,1.87,1.87,0,0,0-.82,1.59,2,2,0,0,0,.77,1.56q1,.81,4.75,1.71a24.5,24.5,0,0,1,5.57,1.84,7.12,7.12,0,0,1,2.83,2.6,7.62,7.62,0,0,1,1,4.08,7.51,7.51,0,0,1-1.22,4.12,7.29,7.29,0,0,1-3.46,2.85,14.53,14.53,0,0,1-5.57.93c-3.23,0-5.72-.74-7.45-2.24A9.77,9.77,0,0,1,387.69,767Z" transform="translate(-126.85 -383)"/><path class="cls-1" d="M418.61,775.35V754.09H411v-4.33h20.33v4.33h-7.57v21.26Z" transform="translate(-126.85 -383)"/><path class="cls-1" d="M455.11,775.35h-5.62l-2.23-5.81H437l-2.11,5.81h-5.49l10-25.59h5.47Zm-9.51-10.12-3.53-9.5-3.45,9.5Z" transform="translate(-126.85 -383)"/><path class="cls-1" d="M461.29,775.35V764.58l-9.37-14.82H458l6,10.12,5.9-10.12h6l-9.41,14.85v10.74Z" transform="translate(-126.85 -383)"/><path class="cls-1" d="M487.74,775.35V749.76h17.55v4.33H492.91v6.06h10.68v4.32H492.91v10.88Z" transform="translate(-126.85 -383)"/><path class="cls-1" d="M509.39,775.35V749.76h5.17v25.59Z" transform="translate(-126.85 -383)"/><path class="cls-1" d="M525.24,775.35V754.09h-7.59v-4.33H538v4.33h-7.57v21.26Z" transform="translate(-126.85 -383)"/><path class="cls-1" d="M551.29,775.35V749.76h17.54v4.33H556.45v6.06h10.69v4.32H556.45v10.88Z" transform="translate(-126.85 -383)"/><path class="cls-1" d="M572.93,775.35V749.76h5.17v25.59Z" transform="translate(-126.85 -383)"/><path class="cls-1" d="M594.93,765.94v-4.31h11.14v10.19a14,14,0,0,1-4.71,2.77,17,17,0,0,1-6.24,1.2,14,14,0,0,1-7-1.69,10.68,10.68,0,0,1-4.48-4.82,15.41,15.41,0,0,1-1.51-6.81,14.7,14.7,0,0,1,1.68-7.11,11.24,11.24,0,0,1,4.91-4.76,13.21,13.21,0,0,1,6.12-1.28,12.26,12.26,0,0,1,7.45,2,9.05,9.05,0,0,1,3.45,5.53l-5.14,1a5.39,5.39,0,0,0-2-3,6.13,6.13,0,0,0-3.73-1.09,7,7,0,0,0-5.38,2.15c-1.34,1.43-2,3.55-2,6.37q0,4.54,2,6.83a6.76,6.76,0,0,0,5.31,2.28,8.83,8.83,0,0,0,3.26-.64,11.3,11.3,0,0,0,2.8-1.54v-3.25Z" transform="translate(-126.85 -383)"/><path class="cls-1" d="M610.85,775.35V749.76H616v10.07h10.12V749.76h5.17v25.59h-5.17V764.16H616v11.19Z" transform="translate(-126.85 -383)"/><path class="cls-1" d="M642.42,775.35V754.09h-7.6v-4.33h20.34v4.33h-7.58v21.26Z" transform="translate(-126.85 -383)"/><path class="cls-1" d="M668.46,775.35V749.76H686v4.33H673.63v6.06h10.68v4.32H673.63v10.88Z" transform="translate(-126.85 -383)"/><path class="cls-1" d="M689.22,762.71a16.25,16.25,0,0,1,1.17-6.56,11.78,11.78,0,0,1,2.38-3.51,9.94,9.94,0,0,1,3.31-2.31,14.1,14.1,0,0,1,5.51-1,12,12,0,0,1,9.06,3.51q3.39,3.51,3.39,9.76t-3.37,9.7a13.44,13.44,0,0,1-18.08,0Q689.22,768.82,689.22,762.71Zm5.32-.17q0,4.34,2,6.59a6.56,6.56,0,0,0,5.1,2.24,6.46,6.46,0,0,0,5.07-2.23c1.32-1.48,2-3.71,2-6.67s-.64-5.12-1.93-6.57a7.15,7.15,0,0,0-10.27,0Q694.54,758.12,694.54,762.54Z" transform="translate(-126.85 -383)"/><path class="cls-1" d="M718.09,775.35V749.76H729a18.62,18.62,0,0,1,6,.69,5.88,5.88,0,0,1,3,2.45,7.42,7.42,0,0,1,1.11,4,6.83,6.83,0,0,1-1.69,4.76,8.17,8.17,0,0,1-5.06,2.37A12.22,12.22,0,0,1,735,766.2a30.52,30.52,0,0,1,2.94,4.16l3.12,5h-6.18l-3.73-5.57a36.28,36.28,0,0,0-2.73-3.76,3.88,3.88,0,0,0-1.55-1.06,8.29,8.29,0,0,0-2.6-.29h-1v10.68Zm5.17-14.77h3.82a19.89,19.89,0,0,0,4.65-.31,2.79,2.79,0,0,0,1.45-1.09,3.39,3.39,0,0,0,.52-1.92,3.05,3.05,0,0,0-.69-2.08,3.17,3.17,0,0,0-2-1c-.42,0-1.67-.08-3.77-.08h-4Z" transform="translate(-126.85 -383)"/><path class="cls-1" d="M753.67,775.35V749.76h5.17v25.59Z" transform="translate(-126.85 -383)"/><path class="cls-1" d="M769.52,775.35V754.09h-7.59v-4.33h20.34v4.33h-7.58v21.26Z" transform="translate(-126.85 -383)"/></svg>